<?xml version="1.0" ?><svg height="512" id="Layer_1" version="1.1" viewBox="0 0 512.00003 512" width="512" xml:space="preserve" xmlns="http://www.w3.org/2000/svg" xmlns:cc="http://creativecommons.org/ns#" xmlns:dc="http://purl.org/dc/elements/1.1/" xmlns:rdf="http://www.w3.org/1999/02/22-rdf-syntax-ns#" xmlns:svg="http://www.w3.org/2000/svg"><defs id="defs7"/><g id="g2992"><g id="g2990" transform="matrix(0.96000006,0,0,0.96000006,10.24,10.239985)"><g id="g12410" transform="translate(13977.136,-10654.145)"><g id="g12404"><path d="m -13743.365,10660.145 c -120.97,10.407 -217.357,106.804 -227.771,227.771 l 49.937,4.351 c 8.329,-96.775 85.408,-173.89 182.185,-182.216 l -4.351,-49.906 z" id="path7657-8-7" style="fill:#1b8e99;fill-opacity:1;fill-rule:nonzero;stroke:none"/><path d="m -13699.846,10660.145 -4.352,49.938 c 102.505,8.83 182.968,94.798 182.968,199.592 0,11.886 -1.053,23.53 -3.037,34.847 l 49.342,8.704 c 2.481,-14.147 3.789,-28.693 3.789,-43.551 0,-130.994 -100.575,-238.495 -228.71,-249.53 z" id="path7655-3-8" style="fill:#37484a;fill-opacity:1;fill-rule:nonzero;stroke:none"/><path d="m -13921.199,10927.083 -49.937,4.352 c 11.025,128.144 118.529,228.71 249.53,228.71 37.859,0 73.744,-8.413 105.917,-23.45 l -21.164,-45.398 c -25.738,12.03 -54.464,18.754 -84.753,18.754 -104.793,0 -190.762,-80.463 -199.593,-182.968 z" id="path7653-5-8" style="fill:#37484a;fill-opacity:1;fill-rule:nonzero;stroke:none"/><path d="m -13533.253,10978.178 c -14.168,38.954 -40.084,72.249 -73.45,95.649 l 28.741,41.046 c 41.695,-29.243 74.086,-70.865 91.798,-119.537 l -47.089,-17.158 z" id="path7623-1-29" style="fill:#1b8e99;fill-opacity:1;fill-rule:nonzero;stroke:none"/></g><g id="g12400" transform="matrix(1.1415463,0,0,1.1415463,1277.1341,-2136.5103)"><path d="m -13158.492,11316.614 c -45.206,0 -44.652,39.456 -44.652,39.456 l -0.29,20.97 c -3.694,-0.05 -4.575,3.612 -4.575,10.91 0,10.938 6.688,22.386 12.752,28.298 2.055,8.599 5.978,16.172 11.261,21.943 -0.184,0.114 -0.384,0.219 -0.569,0.332 l 0,0 c -18.016,10.989 -39.491,18.433 -53.523,25.876 -3.87,2.051 -8,5.646 -11.344,10.226 -2.277,3.151 -4.257,6.522 -5.962,10.02 -0.06,0.124 -0.125,0.248 -0.186,0.372 -0.234,0.486 -0.46,0.98 -0.684,1.47 -3.389,7.254 -5.671,15.003 -6.996,22.771 -0.03,0.145 -0.06,0.291 -0.08,0.435 -0.06,0.365 -0.13,0.732 -0.187,1.097 -0.237,1.346 -0.471,2.673 -0.662,3.995 -0.163,1.09 -0.372,3.42 -0.29,4.555 -0.01,0.07 -0.02,0.138 -0.02,0.207 -0.5,7.09 12.814,9.398 12.814,9.398 4.981,1.473 14.141,3.103 25.255,4.596 19.827,3.272 40.131,4.376 60.075,4.989 1.936,0.06 3.959,0.1 6.065,0.103 0.129,0 0.265,0 0.394,0 1.048,0 2.125,0.01 3.208,0 2.107,0 4.13,-0.04 6.066,-0.103 19.935,-0.613 40.236,-1.72 60.054,-4.989 11.13,-1.494 20.31,-3.121 25.297,-4.596 0,0 13.293,-2.308 12.793,-9.398 -0.01,-0.07 -0.02,-0.138 -0.02,-0.207 0.08,-1.135 -0.127,-3.465 -0.29,-4.555 -0.273,-1.889 -0.583,-3.801 -0.952,-5.734 -1.469,-8.496 -4.072,-16.964 -8.032,-24.779 -0.04,-0.09 -0.08,-0.182 -0.124,-0.269 -1.632,-3.27 -3.493,-6.419 -5.631,-9.378 -3.344,-4.58 -7.495,-8.175 -11.365,-10.226 -14.032,-7.443 -35.507,-14.887 -53.523,-25.876 l 0,0 c -0.184,-0.113 -0.385,-0.218 -0.569,-0.332 5.283,-5.771 9.207,-13.344 11.261,-21.943 6.064,-5.912 12.752,-17.36 12.752,-28.298 0,-7.298 -0.902,-10.96 -4.595,-10.91 l -0.27,-20.97 c 0,0 0.554,-39.456 -44.652,-39.456 z" id="path4080-9-0-1" style="fill:#1b8e99;fill-opacity:1;stroke:none"/><path d="m -13081.985,11291.908 c 40.447,0 39.951,35.302 39.951,35.302 l 0.257,18.766 c 3.304,-0.05 4.091,3.217 4.091,9.746 0,9.787 -5.971,20.03 -11.396,25.32 -1.838,7.694 -5.363,14.479 -10.089,19.644 0.164,0.101 0.349,0.199 0.514,0.3 16.119,9.832 35.343,16.496 47.898,23.156 3.462,1.835 7.14,5.049 10.132,9.147 2.038,2.819 3.83,5.825 5.356,8.954 0.06,0.111 0.1,0.231 0.15,0.343 0.208,0.434 0.421,0.868 0.621,1.306 3.032,6.49 5.069,13.422 6.255,20.372 0.03,0.129 0.06,0.257 0.09,0.386 0.05,0.326 0.1,0.659 0.15,0.985 0.212,1.204 0.429,2.394 0.6,3.577 0.145,0.975 0.33,3.055 0.257,4.07 0.01,0.06 0.02,0.131 0.02,0.193 0.447,6.344 -11.461,8.397 -11.461,8.397 -4.457,1.319 -12.655,2.778 -22.599,4.113 -9.223,1.522 -18.565,2.526 -27.912,3.213 -3.196,-8.709 -7.73,-16.876 -13.881,-23.863 -15.083,-15.075 -36.917,-19.726 -55.246,-29.69 -2.462,-1.428 13.808,-27.602 15.338,-30.782 3.532,-10.129 6.298,-22.777 -0.364,-32.261 -1.579,-10.26 -0.194,-21.134 -3.256,-31.253 -2.452,-8.73 -7.636,-16.166 -14.396,-21.872 2.435,-10.39 10.71,-27.569 38.923,-27.569 z" id="path4082-7-1-2" style="fill:#37484a;fill-opacity:1;stroke:none"/></g></g></g></g></svg>